<svg version="1.1" id="Layer_1" xmlns="http://www.w3.org/2000/svg" x="0" y="0" viewBox="0 0 197 12" xml:space="preserve" enable-background="new 0 0 197 12"><path d="M2.5 7.7C1.3 7.3.2 6.7.2 5.4c0-1.7 1.6-2.3 3.4-2.3.8 0 1.7.1 2.4.2v1.6c-.5-.1-1-.2-1.5-.2-1.1-.1-2.3 0-2.3.7-.1.5.8.8 1.8 1.2 1.2.5 2.7 1.1 2.7 2.7 0 1.9-2.2 2.4-3.8 2.4-1.7 0-2.8-.4-2.9-.4V9.7s1 .3 2.2.4c1.1.1 2.4 0 2.5-.7.3-.9-1-1.2-2.2-1.7M16 11.5h-2.1V0H16v3.4c2.4-.4 6.1-.9 6.1 3.9v4.2h-2V7.3c0-2.4-1.5-2.5-2.5-2.5-.5 0-1.1.1-1.6.1v6.6zm20.2-4.1c0-1.9-1-2.7-2.4-2.7s-2.4.8-2.4 2.7c0 1.9 1 2.7 2.4 2.7 1.3 0 2.4-.8 2.4-2.7m2 0c0 2.6-1.6 4.3-4.4 4.3-2.8 0-4.4-1.6-4.4-4.3 0-2.6 1.6-4.3 4.4-4.3 2.7.1 4.4 1.6 4.4 4.3m12 4.3c-2.5.1-5.2-.5-5.2-4.2 0-3.8 2.7-4.4 5.2-4.3.6 0 1.3.1 1.8.2V5c-.7-.1-1.3-.2-2-.2-1.4 0-3 .2-3 2.7 0 2.4 1.6 2.7 3 2.7.8 0 1.5-.1 2-.2v1.5c-.5.1-1.1.1-1.8.2m12.2-3.4l-.8.7v2.4h-2.1V0h2.1v6.4l3.1-3.1h2.6L63.7 7l4.3 4.5h-2.5l-3.1-3.2zm18.3-.9c0-1.9-1-2.7-2.4-2.7s-2.4.8-2.4 2.7c0 1.9 1 2.7 2.4 2.7 1.3 0 2.4-.8 2.4-2.7m2 0c0 2.6-1.6 4.3-4.4 4.3-2.8 0-4.4-1.6-4.4-4.3 0-2.6 1.6-4.3 4.4-4.3 2.7.1 4.4 1.6 4.4 4.3" fill="#231f20"/><defs><filter id="Adobe_OpacityMaskFilter" filterUnits="userSpaceOnUse" x="89.9" y="0" width="106.7" height="11.7"><feColorMatrix values="1 0 0 0 0 0 1 0 0 0 0 0 1 0 0 0 0 0 1 0"/></filter></defs><mask maskUnits="userSpaceOnUse" x="89.9" y="0" width="106.7" height="11.7" id="b"><g filter="url(#Adobe_OpacityMaskFilter)"><path id="a" d="M0 11.7h196.7V0H0v11.7z" fill="#fff"/></g></mask><path d="M89.9 11.5h2V0h-2v11.5zm14.7-3.7c-.3 0-.8-.1-1.4-.1-1.1 0-1.9.3-1.9 1.3s.8 1.3 1.9 1.3c.6 0 1-.1 1.5-.2V7.8h-.1zm2-1.4v4.9c-1.4.3-2.9.4-4.1.4-2-.1-3.4-.9-3.4-2.7 0-1.9 1.5-2.5 3.2-2.6.9 0 1.7.1 2.2.2v-.3c0-1.2-.6-1.5-1.8-1.5-.7 0-1.9.1-2.5.2V3.4c1.1-.1 2.5-.2 3.5-.2 1.8.1 2.9.6 2.9 3.2zm9.3 1c0 2.5 1.3 2.7 2.8 2.7.4 0 1-.1 1.4-.2v-5c-.5-.1-1.1-.2-1.6-.2-1.3 0-2.6.3-2.6 2.7m2.4 4.2c-2.4 0-4.4-.8-4.4-4.2 0-3.1 1.3-4.1 3.3-4.2.9-.1 1.9.1 2.8.3V0h2v11.3c-.9.2-2.5.3-3.7.3m16.4-3.8c-.3 0-.8-.1-1.4-.1-1.1 0-1.9.3-1.9 1.3s.9 1.3 1.9 1.3c.6 0 1-.1 1.5-.2V7.8h-.1zm2.1-1.4v4.9c-1.4.3-2.9.4-4.1.4-2-.1-3.4-.9-3.4-2.7 0-1.9 1.5-2.5 3.2-2.6.9 0 1.7.1 2.2.2v-.3c0-1.2-.6-1.5-1.8-1.5-.7 0-1.9.1-2.5.2V3.4c1.1-.1 2.5-.2 3.5-.2 1.7.1 2.9.6 2.9 3.2zm9.7 5.3c-.9 0-1.8-.6-1.8-1.8s.8-1.8 1.8-1.8 1.8.6 1.8 1.8c.1 1.2-.8 1.8-1.8 1.8m16.8-6.8c-.8-.3-1.5-.4-2.3-.4-1.5 0-2.2.5-2.2 1.2 0 .9.8 1.1 2.3 1.3 1.7.2 3.1.9 3.1 2.5s-1.4 2.3-3.7 2.3c-1.1 0-1.9-.1-2.7-.5l.3-1c.8.3 1.6.5 2.4.5 1.8 0 2.7-.4 2.7-1.3s-.7-1.2-2.4-1.4c-1.9-.2-3-.9-3-2.2 0-1.2 1.1-2.2 3.3-2.2 1.1 0 1.8.1 2.7.5l-.5.7zm7 6.6h1.1V3.7h-1.1v7.8zm1.4-10.3c0 .5-.3.9-.9.9s-.9-.4-.9-.9.3-.9.9-.9.9.4.9.9zm5.7 2.8l1-.6 1.1-1.7h.3v1.9h3.2v1l-3.2-.1v4.3c0 1.3.6 1.8 1.6 1.8.7 0 1.2-.1 1.7-.5l.4.9c-.7.4-1.3.6-2.3.6-1.8 0-2.6-1-2.6-2.8V4.7l-1.3-.2.1-.5zm18.2 2.9c0-1.7-.8-2.4-2.6-2.4-1.4 0-2.8.8-3 2.4h5.6zm-5.6.9c.1 2 1.6 2.8 3.3 2.8 1.1 0 1.9-.2 2.7-.6l.3 1c-1 .4-1.8.6-3.1.6-2.8 0-4.4-1.6-4.4-4.1 0-2.4 1.8-4.1 4.2-4.1 2.5 0 3.6 1.3 3.6 3.2 0 .4 0 .7-.1 1.1l-6.5.1z" mask="url(#b)" fill="#231f20"/></svg>