<svg version="1.1" id="Layer_1" xmlns="http://www.w3.org/2000/svg" x="0" y="0" viewBox="0 0 136 73" xml:space="preserve" enable-background="new 0 0 136 73"><filter filterUnits="objectBoundingBox" height="181.3%" id="a" width="136.6%" x="-18.3%" y="-30.7%"><feOffset dy="5" in="SourceAlpha" result="shadowOffsetOuter1"/><feGaussianBlur in="shadowOffsetOuter1" result="shadowBlurOuter1" stdDeviation="6"/><feComposite in="shadowBlurOuter1" in2="SourceAlpha" operator="out" result="shadowBlurOuter1"/><feColorMatrix in="shadowBlurOuter1" values="0 0 0 0 0 0 0 0 0 0 0 0 0 0 0 0 0 0 0.2 0"/></filter><g filter="url(#a)" transform="translate(-164 -255)"><path id="b_1_" d="M184 262h96c4.4 0 8 3.6 8 8v23c0 4.4-3.6 8-8 8h-8.4v11.5L256.8 301H184c-4.4 0-8-3.6-8-8v-23c0-4.4 3.6-8 8-8z"/></g><path d="M271.1 311.4v-10.9h8.9c4.1 0 7.5-3.4 7.5-7.5h0v-23c0-4.1-3.4-7.5-7.5-7.5h-96c-4.1 0-7.5 3.4-7.5 7.5v23c0 4.1 3.4 7.5 7.5 7.5h72.9l14.2 10.9z" fill="#fff5f5" stroke="#dd9c9c" transform="translate(-164 -255)"/></svg>