<svg xmlns="http://www.w3.org/2000/svg"><symbol id="eye" viewBox="0 0 42 27"><path d="M34.7 17c-1.7-2.6-4-4.7-6.8-6.1.7 1.2 1.1 2.5 1.1 3.9 0 4.3-3.6 7.8-8 7.8s-8-3.5-8-7.8c0-1.4.4-2.7 1.1-3.9-2.8 1.4-5.1 3.5-6.8 6.1 3.1 4.6 8 7.8 13.7 7.8s10.7-3.2 13.7-7.8zm2.3 0c0 .4-.1.8-.4 1.2C33.4 23.5 27.3 27 21 27S8.6 23.4 5.4 18.2c-.3-.4-.4-.8-.4-1.2s.1-.8.4-1.2C8.6 10.6 14.7 7 21 7s12.4 3.6 15.6 8.8c.3.4.4.8.4 1.2z"/></symbol><symbol id="eyelashes" viewBox="0 0 42 27"><path d="M2.8 12.7c.5.5 1.4.4 1.8-.1.5-.6.4-1.4-.1-2L2.2 8.3c-.5-.5-1.3-.5-1.8 0 0 0 0 .1-.1.1-.5.6-.4 1.4.1 2l2.4 2.3zm5.1-5.2c.4.6 1.1.7 1.6.2.5-.4.6-1.3.2-1.9L8.1 3.5c-.4-.6-1.1-.7-1.6-.2-.6.4-.7 1.3-.3 1.8l1.7 2.4zm7.9-3.3c.2.6.8 1 1.4.8s.9-.9.7-1.5L17.1.9c-.2-.6-.8-1-1.4-.8s-.9.9-.7 1.5c.1 0 .8 2.6.8 2.6zm10.4 0c-.2.6-.8 1-1.4.8s-.9-.9-.7-1.5l.8-2.6c.2-.6.8-1 1.4-.8s.9.9.7 1.5l-.8 2.6zm8.9 3.3c-.4.6-1.1.7-1.7.2-.5-.4-.6-1.3-.2-1.9l1.6-2.3c.4-.6 1.1-.7 1.7-.2.5.4.6 1.3.2 1.9l-1.6 2.3zm4.1 5.2c-.5.5-1.4.4-1.8-.1-.5-.6-.4-1.4.1-2l2.4-2.2c.5-.5 1.3-.5 1.8 0 0 0 0 .1.1.1.5.6.4 1.4-.1 2-.1-.1-2.5 2.2-2.5 2.2z"/></symbol><symbol id="eye-closed" viewBox="0 0 42 19"><path d="M5.2 1.9C4.8 1.3 5 .5 5.6.2 6.2-.2 7 0 7.3.6c3.2 6 7.7 8.9 13.7 8.9 6 0 10.5-2.9 13.6-8.8.3-.6 1-.8 1.6-.5.6.3.8 1.1.5 1.7C33.3 8.6 28 12 21 12 14.1 12 8.7 8.6 5.2 1.9zM2.8 6.3c.5-.5 1.3-.5 1.8 0 0 0 0 .1.1.1.5.6.4 1.4-.1 2l-2.4 2.2c-.5.5-1.4.4-1.8-.1-.5-.6-.4-1.4.1-2-.1.1 2.3-2.2 2.3-2.2zm5.1 5.2c.4-.6 1.1-.7 1.7-.2.5.4.6 1.3.2 1.9l-1.6 2.3c-.4.6-1.1.7-1.7.2-.5-.4-.6-1.3-.2-1.9l1.6-2.3zm7.9 3.3c.2-.6.8-1 1.4-.8.6.2.9.9.7 1.5l-.8 2.6c-.2.6-.8 1-1.4.8-.6-.2-.9-.9-.7-1.5.1 0 .8-2.6.8-2.6zm10.4 0c-.2-.6-.8-1-1.4-.8-.6.2-.9.9-.7 1.5l.8 2.6c.2.6.8 1 1.4.8.6-.2.9-.9.7-1.5-.1 0-.8-2.6-.8-2.6zm8.9-3.3c-.4-.6-1.1-.7-1.7-.2s-.6 1.3-.2 1.9l1.6 2.3c.4.6 1.1.7 1.7.2.5-.4.6-1.3.2-1.9l-1.6-2.3zm4.1-5.2c-.5-.5-1.3-.5-1.8 0 0 0 0 .1-.1.1-.5.6-.4 1.4.1 2l2.4 2.2c.5.5 1.4.4 1.8-.1.5-.6.4-1.4-.1-2 .1.1-2.3-2.2-2.3-2.2z"/></symbol><symbol id="eye-red" viewBox="0 0 41.8 28.2"><path id="a" fill="#FFF" d="M6.3 17.2c3.2-6.5 8.3-9.7 15.2-9.7s11.8 3.2 14.7 9.7c-3 6.5-7.9 9.8-14.7 9.8S9.6 23.7 6.3 17.2z"/><g transform="translate(9 6)"><path id="a_1_" fill="#DD7070" d="M-2.7 11.2C.5 4.7 5.6 1.5 12.5 1.5s11.8 3.2 14.7 9.7c-3 6.5-7.9 9.8-14.7 9.8S.6 17.7-2.7 11.2z"/></g><path fill="#E7C0C0" d="M-2.7 13.2C.5 8.7 5.6 6.5 12.5 6.5s11.8 2.2 14.7 6.7c-3 4.5-7.9 6.7-14.7 6.7-6.9 0-11.9-2.3-15.2-6.7z" transform="translate(9 6)"/><path d="M5.3 18.2c-.3-.6-.1-1.4.5-1.7.6-.3 1.3-.1 1.7.5 3.2 5.8 7.7 8.7 13.9 8.7 6.1 0 10.6-2.8 13.8-8.7.3-.6 1.1-.8 1.7-.5.6.3.8 1.1.5 1.7-3.5 6.6-8.9 10-16 10s-12.5-3.4-16.1-10z"/><path d="M5.3 16.4c-.3.6-.1 1.3.6 1.6.6.3 1.3.1 1.6-.5 3.2-5.8 7.7-8.7 13.9-8.7 6.1 0 10.6 2.8 13.8 8.7.3.6 1.1.8 1.7.5.6-.3.8-1.1.5-1.7-3.5-6.6-8.9-10-16-10-7.1.1-12.5 3.5-16.1 10.1z"/><circle stroke="#DD7070" cx="21.2" cy="16.9" r="6"/><path d="M2.7 12.8c.5.5 1.3.4 1.8-.1s.4-1.3-.1-1.8L2.1 9c-.6-.5-1.4-.4-1.8.1s-.4 1.3.1 1.7l2.3 2zm5.2-5.1c.4.6 1.2.7 1.8.2.6-.4.7-1.2.2-1.8L8.2 3.9c-.4-.5-1.2-.7-1.7-.3-.6.4-.7 1.2-.3 1.8l.1.1 1.6 2.2zm7.8-3.4c.2.7.9 1 1.6.8.7-.2 1-.9.8-1.6L17.2.9c-.2-.7-.9-1-1.6-.8-.6.2-1 .9-.8 1.6l.9 2.6zm10.6 0c-.2.7-.9 1-1.6.8s-1-.9-.8-1.6l.9-2.6c.2-.7.9-1 1.6-.8.6.2 1 .9.8 1.6-.1-.1-.9 2.6-.9 2.6zM35 7.5c-.4.5-1.2.6-1.8.2-.5-.4-.6-1.2-.2-1.8l1.7-2.2c.4-.6 1.2-.7 1.7-.3.6.4.7 1.2.3 1.7L35 7.5zm4.1 5.3c-.5.5-1.3.4-1.8-.1s-.4-1.3.1-1.8l2.3-2c.5-.5 1.3-.4 1.8.1s.4 1.3-.1 1.8l-2.3 2z"/></symbol></svg>